# AST/ASF file generated using VICON BodyLanguage
# -----------------------------------------------
:version 1.10
:name VICON
:units
  mass 1.0
  length 0.45
  angle deg
:documentation
   .ast/.asf automatically generated from VICON data using
   VICON BodyBuilder and BodyLanguage model FoxedUp or BRILLIANT.MOD
:root
   order TX TY TZ RX RY RZ
   axis XYZ
   position 0 0 0  
   orientation 0 0 0 
:bonedata
  begin
     id 1 
     name lhipjoint
     direction 0.570549 -0.739093 0.358072 
     length 2.41801 
     axis 0 0 0  XYZ
  end
  begin
     id 2 
     name lfemur
     direction 0.34202 -0.939693 0  
     length 7.44434  
     axis 0 0 20  XYZ
    dof rx ry rz
    limits (-160.0 20.0)
           (-70.0 70.0)
           (-60.0 70.0)
  end
  begin
     id 3 
     name ltibia
     direction 0.34202 -0.939693 0   
     length 7.60047   
     axis 0 0 20   XYZ
    dof rx
    limits (-10.0 170.0)
  end
  begin
     id 4 
     name lfoot
     direction 0.0909041 -0.249757 0.964032   
     length 2.03437   
     axis -90 7.62852e-016 20   XYZ
    dof rx rz
    limits (-45.0 90.0)
           (-70.0 20.0)
  end
  begin
     id 5 
     name ltoes
     direction 1.53547e-011 -4.2174e-011 1   
     length 1.02054   
     axis -90 7.62852e-016 20   XYZ
    dof rx
    limits (-90.0 20.0)
  end
  begin
     id 6 
     name rhipjoint
     direction -0.558096 -0.746754 0.361784   
     length 2.3932  
     axis 0 0 0  XYZ 
  end
  begin
     id 7 
     name rfemur
     direction -0.34202 -0.939693 0   
     length 7.3886   
     axis 0 0 -20   XYZ
    dof rx ry rz
    limits (-160.0 20.0)
           (-70.0 70.0)
           (-70.0 60.0)
  end
  begin
     id 8 
     name rtibia
     direction -0.34202 -0.939693 0   
     length 7.4839   
     axis 0 0 -20   XYZ
    dof rx
    limits (-10.0 170.0)
 end
 begin
     id 9 
     name rfoot
     direction -0.114619 -0.314914 0.942174   
     length 2.25127  
     axis -90 -7.62852e-016 -20   XYZ
    dof rx rz
    limits (-45.0 90.0)
           (-20.0 70.0)
  end
  begin
     id 10 
     name rtoes
     direction -1.53518e-011 -4.21881e-011 1   
     length 1.11821   
     axis -90 -7.62852e-016 -20   XYZ
    dof rx
    limits (-90.0 20.0)
  end
  begin
     id 11 
     name lowerback
     direction -0.00902269 0.996426 -0.0839821   
     length 2.25052   
     axis 0 0 0   XYZ
    dof rx ry rz
    limits (-20.0 45.0)
           (-30.0 30.0)
           (-30.0 30.0)
  end
  begin
     id 12 
     name upperback
     direction 0.0370973 0.999169 -0.0168941   
     length 2.24876   
     axis 0 0 0   XYZ
    dof rx ry rz
    limits (-20.0 45.0)
           (-30.0 30.0)
           (-30.0 30.0)
  end
  begin
     id 13 
     name thorax
     direction 0.0402726 0.998931 0.0227027   
     length 2.26408   
     axis 0 0 0   XYZ
    dof rx ry rz
    limits (-20.0 45.0)
           (-30.0 30.0)
           (-30.0 30.0)
  end
  begin
     id 14 
     name lowerneck
     direction -0.0733697 0.98508 0.155675   
     length 1.58204   
     axis 0 0 0   XYZ
    dof rx ry rz
    limits (-20.0 45.0)
           (-30.0 30.0)
           (-30.0 30.0)
  end
  begin
     id 15 
     name upperneck
     direction 0.0426554 0.993501 -0.105526   
     length 1.61222   
     axis 0 0 0   XYZ
    dof rx ry rz
    limits (-20.0 45.0)
           (-30.0 30.0)
           (-30.0 30.0)
  end
  begin
     id 16
     name head
     direction 0.020792 0.998384 -0.0528868  
     length 1.61527  
     axis 0 0 0   XYZ
    dof rx ry rz
    limits (-20.0 45.0)
           (-30.0 30.0)
           (-30.0 30.0)
  end
  begin
     id 17 
     name lclavicle
     direction 0.967109 0.155462 -0.201325  
     length 3.59357  
     axis 0 0 0   XYZ
    dof ry rz
    limits (-20.0 10.0)
           (0.0 20.0)
  end
  begin
     id 18 
     name lhumerus
     direction 1 -4.48968e-011 2.38195e-027   
     length 5.38154   
     axis 180 -30 -90   XYZ
    dof rx ry rz
    limits (-60.0 90.0)
           (-90.0 90.0)
           (-90.0 90.0)
  end
  begin
     id 19
     name lradius
     direction 1 -4.48961e-011 4.85371e-027   
     length 3.33312   
     axis 180 -30 -90   XYZ
    dof rx
    limits (-10.0 170.0)
  end
  begin
     id 20
     name lwrist
     direction 1 -4.48961e-011 4.76515e-027   
     length 1.66656   
     axis -3.27502e-015 90 90   XYZ
    dof ry
    limits (-180.0 0.0)
 end
  begin
     id 21 
     name lhand
     direction 1 -4.48951e-011 9.53074e-027   
     length 0.710789   
     axis -6.08098e-015 90 90   XYZ
    dof rx rz
    limits (-90.0 90.0)
           (-45.0 45.0)
  end
  begin
     id 22 
     name lfingers
     direction 1 -4.48953e-011 1.90613e-026   
     length 0.573057   
     axis -1.21619e-014 90 90   XYZ
    dof rx
    limits (0.0 90.0)
  end
  begin
     id 23
     name lthumb
     direction 0.707107 -6.34973e-011 0.707107   
     length 0.822798   
     axis -90 45 -9.86923e-015   XYZ
    dof rx rz
    limits (-45.0 45.0)
           (-45.0 45.0)
  end
  begin
     id 24 
     name rclavicle
     direction -0.9585 0.265289 -0.104398   
     length 3.42039  
     axis 0 0 0   XYZ 
    dof ry rz
    limits (-10.0 20.0)
           (-20.0 0.0)
  end
  begin
     id 25 
     name rhumerus
     direction -1 -4.48977e-011 2.21478e-027  
     length 5.16954   
     axis 180 30 90   XYZ
    dof rx ry rz
    limits (-90.0 60.0)
           (-90.0 90.0)
           (-90.0 90.0)
  end
  begin
     id 26 
     name rradius
     direction -1 -4.48967e-011 5.63677e-027   
     length 3.38287   
     axis 180 30 90   XYZ
    dof rx
    limits (-10.0 170.0)
  end
  begin
     id 27 
     name rwrist
     direction -1 -4.48967e-011 4.76501e-027   
     length 1.69144   
     axis -3.27502e-015 -90 -90   XYZ
    dof ry
    limits (-180.0 0.0)
  end
  begin
     id 28
     name rhand
     direction -1 -4.48902e-011 9.53292e-027   
     length 0.817967   
     axis -6.08098e-015 -90 -90   XYZ
    dof rx rz
    limits (-90.0 90.0)
           (-45.0 45.0)
  end
  begin
     id 29
     name rfingers
     direction -1 -4.49012e-011 1.90561e-026   
     length 0.659466   
     axis -1.21619e-014 -90 -90   XYZ
    dof rx
    limits (0.0 90.0)
  end
  begin
     id 30
     name rthumb
     direction -0.707107 -6.34944e-011 0.707107   
     length 0.946865   
     axis -90 -45 9.86923e-015   XYZ
    dof rx rz
    limits (-45.0 45.0)
           (-45.0 45.0)
  end
:hierarchy
  begin
    root lhipjoint rhipjoint lowerback
    lhipjoint lfemur
    lfemur ltibia
    ltibia lfoot
    lfoot ltoes
    rhipjoint rfemur
    rfemur rtibia
    rtibia rfoot
    rfoot rtoes
    lowerback upperback
    upperback thorax
    thorax lowerneck lclavicle rclavicle
    lowerneck upperneck
    upperneck head
    lclavicle lhumerus
    lhumerus lradius
    lradius lwrist
    lwrist lhand lthumb
    lhand lfingers
    rclavicle rhumerus
    rhumerus rradius
    rradius rwrist
    rwrist rhand rthumb
    rhand rfingers
  end

#!OML:ASF F:\twosubjects\two\wednesday\Session 1\Justin1.ASF
:FULLY-SPECIFIED
:DEGREES
113
root 1.73761 17.7062 9.1379 -180.323 -0.778877 -185.349
lowerback 5.32061 -4.56288 -9.81917
upperback 1.60058 -6.67786 2.64063
thorax 0.139364 -3.47609 8.54615
lowerneck -17.3955 -0.863736 -8.76772
upperneck 16.9654 0.147797 5.43236
head 8.11484 0.106159 3.29243
rclavicle -3.39922e-014 1.90833e-014
rhumerus -49.0695 -13.9856 -66.8834
rradius 22.7254
rwrist -6.52986
rhand -11.8987 17.1686
rfingers 7.12502
rthumb 14.1546 -12.3292
lclavicle -3.39922e-014 1.90833e-014
lhumerus 27.9906 14.8701 79.9393
lradius 36.008
lwrist 4.7342
lhand -3.71913 40.4669
lfingers 7.12502
lthumb 22.0237 69.233
rfemur -45.1189 -1.90769 14.8824
rtibia 20.4834
rfoot -6.5366 -6.87654
rtoes 1.80189
lfemur 13.0479 -2.18238 -30.6947
ltibia 14.4518
lfoot -12.5845 0.128642
ltoes -10.5794
114
root 1.74718 17.6979 8.99616 -180.073 -0.990885 -185.224
lowerback 4.91399 -4.63669 -9.47625
upperback 1.66477 -6.71644 2.5772
thorax 0.393294 -3.50763 8.2389
lowerneck -17.0128 -0.932336 -8.95981
upperneck 16.5667 -0.00771078 5.81656
head 7.92517 0.0583444 3.42484
rclavicle 6.75868e-015 2.3059e-014
rhumerus -48.7436 -14.3122 -67.1847
rradius 22.6506
rwrist -6.0463
rhand -12.0887 17.0323
rfingers 7.12502
rthumb 13.9715 -12.4782
lclavicle 6.75868e-015 2.3059e-014
lhumerus 28.1431 14.7577 79.9451
lradius 36.0864
lwrist 4.67138
lhand -3.69175 40.6495
lfingers 7.12502
lthumb 22.0499 69.4124
rfemur -44.8167 -1.73087 14.8292
rtibia 20.4317
rfoot -6.18498 -6.99689
rtoes 1.00726
lfemur 13.0932 -2.48141 -30.4972
ltibia 14.7204
lfoot -12.1762 -0.526091
ltoes -8.73518
115
root 1.75974 17.6785 8.85782 -179.93 -1.03491 -185.628
lowerback 4.72935 -4.55688 -9.89949
upperback 1.7019 -6.60768 2.4754
thorax 0.54992 -3.4645 8.34748
lowerneck -16.6445 -1.04654 -8.92115
upperneck 16.2337 -0.206514 5.824
head 7.76602 -0.0340339 3.38859
rclavicle 1.00287e-013 -2.38542e-015
rhumerus -48.5019 -14.7475 -67.2035
rradius 22.5339
rwrist -5.72823
rhand -12.1909 17.1885
rfingers 7.12502
rthumb 13.873 -12.3288
lclavicle 1.00287e-013 -2.38542e-015
lhumerus 28.275 14.5852 80.1347
lradius 36.1049
lwrist 4.4385
lhand -3.50815 40.4887
lfingers 7.12502
lthumb 22.2262 69.2307
rfemur -44.3645 -1.46868 14.2266
rtibia 20.2235
rfoot -6.06912 -6.96943
rtoes 0.30861
lfemur 13.3172 -2.58358 -30.8504
ltibia 14.9978
lfoot -12.1318 -0.906836
ltoes -8.54781
116
root 1.77773 17.6753 8.71383 -179.709 -1.01206 -185.363
lowerback 4.7701 -4.43773 -9.75133
upperback 1.47683 -6.44199 2.68756
thorax 0.26355 -3.35292 8.50985
lowerneck -17.0589 -1.11326 -8.97156
upperneck 16.9625 -0.203344 5.63447
head 8.08235 -0.0528901 3.35174
rclavicle -4.55217e-014 4.77083e-015
rhumerus -48.6998 -14.4782 -67.2169
rradius 22.6683
rwrist -6.14206
rhand -12.1518 17.4431
rfingers 7.12502
rthumb 13.9107 -12.0716
lclavicle -4.55217e-014 4.77083e-015
lhumerus 27.9038 14.0763 80.2333
lradius 36.118
lwrist 4.67733
lhand -3.48023 40.2391
lfingers 7.12502
lthumb 22.253 68.9779
rfemur -43.9762 -1.01647 14.3401
rtibia 20.2645
rfoot -6.34521 -7.04519
rtoes 1.40056
lfemur 13.4642 -2.59564 -30.4443
ltibia 14.9505
lfoot -11.8567 -1.09862
ltoes -9.97571
117
root 1.79346 17.6566 8.56163 -179.398 -1.27472 -184.947
lowerback 4.79424 -4.59609 -9.26764
upperback 1.12807 -6.62966 2.93541
thorax -0.100916 -3.40719 8.52495
lowerneck -17.4343 -1.031 -9.18179
upperneck 17.6411 0.0307713 5.53333
head 8.35927 0.0348136 3.39775
rclavicle 6.65929e-015 -1.27222e-014
rhumerus -48.908 -13.8551 -67.2919
rradius 22.844
rwrist -6.41093
rhand -11.8667 17.4189
rfingers 7.12502
rthumb 14.1855 -12.0768
lclavicle 6.65929e-015 -1.27222e-014
lhumerus 27.2833 14.0289 80.1066
lradius 36.0982
lwrist 5.00324
lhand -3.62299 40.5312
lfingers 7.12502
lthumb 22.116 69.2863
rfemur -43.703 -0.784573 14.584
rtibia 20.5564
rfoot -6.78449 -7.10329
rtoes 2.04982
lfemur 13.7869 -2.61394 -29.8386
ltibia 14.7536
lfoot -11.6074 -1.34545
ltoes -13.6588
